<svg width="20" height="11" viewBox="0 0 20 11" fill="none" xmlns="http://www.w3.org/2000/svg">
<path d="M18.3042 10.2598C17.9892 10.2605 17.684 10.1508 17.4414 9.9498L10.216 3.91058L2.97699 9.73411C2.8391 9.84609 2.68044 9.92971 2.51013 9.98017C2.33982 10.0306 2.16121 10.0469 1.98458 10.0281C1.80795 10.0093 1.63678 9.95584 1.48089 9.87068C1.32501 9.78551 1.18749 9.67038 1.07625 9.53191C0.964274 9.39402 0.880653 9.23536 0.830194 9.06505C0.779735 8.89474 0.763432 8.71613 0.782222 8.5395C0.801013 8.36287 0.854526 8.19169 0.939687 8.03581C1.02485 7.87993 1.13998 7.74241 1.27846 7.63117L9.36669 1.12014C9.6079 0.921867 9.91046 0.813477 10.2227 0.813477C10.5349 0.813477 10.8375 0.921867 11.0787 1.12014L19.1669 7.86034C19.3034 7.9735 19.4163 8.11249 19.499 8.26933C19.5817 8.42617 19.6326 8.59778 19.6489 8.77434C19.6652 8.95091 19.6465 9.12895 19.5938 9.29826C19.5412 9.46758 19.4557 9.62486 19.3422 9.76107C19.2167 9.91571 19.0586 10.0406 18.8791 10.1269C18.6997 10.2131 18.5033 10.2585 18.3042 10.2598Z" fill="#FF2525"/>
</svg>
