<svg width="91" height="92" viewBox="0 0 91 92" fill="none" xmlns="http://www.w3.org/2000/svg">
<path d="M90.6825 27.5516C90.6316 23.7332 89.9168 19.9527 88.57 16.3793C87.4021 13.3652 85.6183 10.6278 83.3326 8.34204C81.0469 6.05631 78.3095 4.27251 75.2953 3.1046C71.7678 1.78044 68.0412 1.06445 64.2742 0.9871C59.4241 0.770309 57.8864 0.709808 45.5747 0.709808C33.2629 0.709808 31.6849 0.709809 26.8701 0.9871C23.1048 1.06501 19.3799 1.781 15.8541 3.1046C12.8394 4.27169 10.1016 6.05521 7.8158 8.34104C5.52997 10.6269 3.74645 13.3647 2.57936 16.3793C1.25255 19.9041 0.538108 23.6298 0.466904 27.3953C0.250112 32.2505 0.18457 33.7882 0.18457 46.0999C0.18457 58.4117 0.18457 59.9847 0.466904 64.8045C0.542529 68.5757 1.2534 72.2964 2.57936 75.8306C3.74841 78.8443 5.53325 81.5811 7.81985 83.8659C10.1064 86.1508 12.8445 87.9335 15.8591 89.1003C19.3753 90.4777 23.1008 91.2449 26.8752 91.369C31.7303 91.5858 33.268 91.6514 45.5797 91.6514C57.8915 91.6514 59.4695 91.6514 64.2843 91.369C68.0512 91.2949 71.778 90.5805 75.3054 89.2566C78.3187 88.0873 81.0554 86.3031 83.341 84.0175C85.6266 81.7319 87.4108 78.9952 88.5801 75.9819C89.9061 72.4527 90.6169 68.732 90.6926 64.9558C90.9093 60.1057 90.9749 58.568 90.9749 46.2512C90.9648 33.9394 90.9648 32.3765 90.6825 27.5516V27.5516ZM45.5444 69.3823C32.668 69.3823 22.2368 58.9511 22.2368 46.0747C22.2368 33.1983 32.668 22.7671 45.5444 22.7671C51.726 22.7671 57.6544 25.2227 62.0254 29.5937C66.3964 33.9648 68.8521 39.8932 68.8521 46.0747C68.8521 52.2563 66.3964 58.1847 62.0254 62.5557C57.6544 66.9267 51.726 69.3823 45.5444 69.3823V69.3823ZM69.7797 27.3399C66.7698 27.3399 64.3448 24.9098 64.3448 21.905C64.3448 21.1916 64.4853 20.4852 64.7583 19.8261C65.0313 19.167 65.4315 18.5681 65.9359 18.0637C66.4404 17.5592 67.0392 17.1591 67.6983 16.8861C68.3574 16.6131 69.0638 16.4726 69.7772 16.4726C70.4906 16.4726 71.197 16.6131 71.8561 16.8861C72.5152 17.1591 73.114 17.5592 73.6185 18.0637C74.1229 18.5681 74.5231 19.167 74.7961 19.8261C75.0691 20.4852 75.2096 21.1916 75.2096 21.905C75.2096 24.9098 72.7795 27.3399 69.7797 27.3399Z" fill="black" fill-opacity="0.12"/>
</svg>
