<svg width="25" height="25" viewBox="0 0 25 25" fill="none" xmlns="http://www.w3.org/2000/svg">
<path d="M23.8949 17.1875C21.9352 21.7857 17.5693 25 12.4981 25C12.3021 25 12.1053 24.9952 11.9079 24.9855C7.1297 24.7528 2.99858 21.5935 1.10284 17.1875H2.93755L0.24399 14.3265C0.120431 13.692 0.041929 13.0486 0.00914808 12.4016C-0.00838362 11.9135 -0.000712543 11.4247 0.0321268 10.9375H2.20224L0.300012 8.91727C0.968957 5.71493 2.73832 2.89295 5.26199 1.00332C5.38644 0.908706 5.53549 0.857517 5.68852 0.856838C5.81127 0.85756 5.93199 0.8902 6.04014 0.951908C6.14829 1.01362 6.24058 1.10251 6.30894 1.21084C6.37775 1.31756 6.42059 1.44074 6.43363 1.56936C6.44666 1.69797 6.42948 1.82802 6.38362 1.94785C6.08473 2.74419 5.93119 3.59369 5.93122 4.45102C5.93122 6.65365 6.89848 8.67845 8.58388 10.0045C8.67451 10.0746 8.74918 10.1654 8.80238 10.2703C8.85557 10.3751 8.88594 10.4913 8.89124 10.6103C8.89654 10.7293 8.87664 10.848 8.83301 10.9577C8.78937 11.0674 8.72311 11.1653 8.63912 11.2442C7.41909 12.4154 6.74696 14.003 6.74696 15.7158C6.74696 18.647 8.72102 21.1006 11.3377 21.669L11.4526 18.4822L10.2046 19.3848C10.1346 19.4324 10.0519 19.4547 9.96902 19.448C9.88612 19.4414 9.8075 19.4064 9.74499 19.3482C9.68402 19.287 9.64447 19.2057 9.63286 19.1174C9.62125 19.0292 9.63827 18.9395 9.68111 18.8629L10.606 17.2142L8.6729 16.7877C8.59 16.7697 8.5155 16.7218 8.46199 16.6522C8.40849 16.5825 8.37927 16.4954 8.37927 16.4055C8.37927 16.3156 8.40849 16.2284 8.46199 16.1588C8.5155 16.0891 8.59 16.0413 8.6729 16.0233L10.606 15.5975L9.6818 13.9504C9.63848 13.8741 9.62105 13.7843 9.6324 13.696C9.64376 13.6077 9.68322 13.5262 9.74423 13.465C9.80524 13.4039 9.88411 13.3667 9.96773 13.3598C10.0514 13.3529 10.1347 13.3766 10.2039 13.427L11.6005 14.4356L12.1298 0.374563C12.1333 0.273654 12.1737 0.178171 12.2423 0.10828C12.3109 0.0383903 12.4024 -0.000435218 12.4974 3.68095e-06H12.4996C12.5943 0.00076612 12.6852 0.0402662 12.7532 0.110304C12.8213 0.180341 12.8613 0.275536 12.8651 0.376126L13.395 14.4348L14.7917 13.4254C14.8613 13.3761 14.9446 13.3531 15.028 13.3603C15.1114 13.3675 15.1901 13.4045 15.2513 13.4651C15.3121 13.526 15.3516 13.6071 15.3632 13.695C15.3748 13.783 15.3579 13.8725 15.3152 13.9488L14.3896 15.5975L16.3234 16.024C16.4061 16.0422 16.4804 16.0901 16.5338 16.1598C16.5872 16.2294 16.6163 16.3164 16.6163 16.4062C16.6163 16.496 16.5872 16.583 16.5338 16.6527C16.4804 16.7223 16.4061 16.7702 16.3234 16.7884L14.3896 17.2142L15.3137 18.8613C15.3571 18.9374 15.3747 19.0269 15.3636 19.115C15.3525 19.2031 15.3134 19.2846 15.2527 19.3458C15.1906 19.4054 15.1118 19.4415 15.0284 19.4485C14.9451 19.4555 14.8619 19.4331 14.7917 19.3847L13.543 18.4829L13.6579 21.6735C15.8861 21.2143 17.6827 19.3222 18.1301 16.9616C18.3317 15.9273 18.2741 14.8549 17.9631 13.8516C17.652 12.8484 17.0985 11.9495 16.3578 11.245C16.2736 11.166 16.2072 11.068 16.1634 10.9581C16.1197 10.8483 16.0997 10.7294 16.105 10.6102C16.1103 10.491 16.1408 10.3746 16.1941 10.2697C16.2474 10.1647 16.3223 10.0738 16.4131 10.0036C18.0977 8.67689 19.0643 6.65355 19.0643 4.45024C19.0648 3.59203 18.911 2.74162 18.6112 1.94473C18.565 1.82499 18.5476 1.69494 18.5606 1.56629C18.5735 1.43764 18.6163 1.31442 18.6852 1.20772C18.7536 1.09955 18.846 1.01082 18.9541 0.949259C19.0623 0.887693 19.1829 0.85516 19.3056 0.854494C19.4581 0.855133 19.6066 0.906043 19.7307 1.0002C22.2505 2.89769 24.0177 5.72138 24.6898 8.92415L22.794 10.9375H24.9519C24.9684 11.2191 25 11.4968 25 11.7806C24.9985 12.6307 24.9196 13.4787 24.7645 14.3128L22.058 17.1875H23.8949Z" fill="#1D198C" fill-opacity="0.55"/>
</svg>
