<svg width="11" height="11" viewBox="0 0 11 11" fill="none" xmlns="http://www.w3.org/2000/svg">
<path d="M1.46688 0.233115L5.5001 4.26595L9.53332 0.245336C9.61273 0.164544 9.70805 0.101107 9.81323 0.059037C9.91842 0.0169665 10.0312 -0.00282231 10.1444 0.00092204C10.3666 0.0152989 10.576 0.110042 10.7334 0.267461C10.8908 0.42488 10.9856 0.634212 11 0.856371C11.0011 0.965602 10.98 1.07392 10.9379 1.17475C10.8959 1.27559 10.8339 1.36684 10.7555 1.44296L6.71007 5.50024L10.7555 9.55751C10.9144 9.71149 11.0024 9.92413 11 10.1441C10.9856 10.3663 10.8908 10.5756 10.7334 10.733C10.576 10.8904 10.3666 10.9852 10.1444 10.9996C10.0312 11.0033 9.91842 10.9835 9.81323 10.9414C9.70805 10.8994 9.61273 10.8359 9.53332 10.7551L5.5001 6.73453L1.4791 10.7551C1.39969 10.8359 1.30438 10.8994 1.19919 10.9414C1.094 10.9835 0.981232 11.0033 0.868004 10.9996C0.641679 10.9878 0.427742 10.8926 0.267489 10.7323C0.107236 10.5721 0.0120308 10.3582 0.000250155 10.1319C-0.000855685 10.0227 0.0202403 9.91434 0.0622585 9.8135C0.104277 9.71267 0.166341 9.62142 0.244688 9.54529L4.29013 5.50024L0.232466 1.44296C0.156325 1.36581 0.0965196 1.2741 0.0566212 1.17331C0.0167229 1.07253 -0.00244933 0.964732 0.000250155 0.856371C0.0146284 0.634212 0.109381 0.42488 0.266815 0.267461C0.424249 0.110042 0.633602 0.0152989 0.855783 0.00092204C0.968129 -0.00441348 1.08037 0.0134498 1.18551 0.0533983C1.29065 0.0933468 1.38643 0.154524 1.46688 0.233115Z" fill="black" fill-opacity="0.12"/>
</svg>
