<svg width="26" height="26" viewBox="0 0 26 26" fill="none" xmlns="http://www.w3.org/2000/svg">
<path fill-rule="evenodd" clip-rule="evenodd" d="M18.1165 16.5802C19.4674 14.8385 20.1041 12.6477 19.897 10.4533C19.6899 8.25896 18.6546 6.2259 17.0017 4.76777C15.3489 3.30963 13.2026 2.53595 10.9995 2.60413C8.79644 2.6723 6.70209 3.5772 5.14253 5.13474C3.58162 6.69336 2.67375 8.78852 2.60395 10.9933C2.53415 13.198 3.30767 15.3464 4.76686 17.0006C6.22606 18.6549 8.26112 19.6904 10.4573 19.8963C12.6536 20.1022 14.8456 19.4629 16.5869 18.1087L16.6335 18.1575L21.229 22.7541C21.3296 22.8547 21.4491 22.9346 21.5806 22.989C21.7121 23.0435 21.8531 23.0716 21.9954 23.0716C22.1378 23.0716 22.2787 23.0435 22.4102 22.989C22.5417 22.9346 22.6612 22.8547 22.7619 22.7541C22.8625 22.6534 22.9424 22.5339 22.9968 22.4024C23.0513 22.2709 23.0793 22.13 23.0793 21.9876C23.0793 21.8453 23.0513 21.7043 22.9968 21.5728C22.9424 21.4413 22.8625 21.3218 22.7619 21.2212L18.1653 16.6257C18.1495 16.61 18.1332 16.5949 18.1165 16.5802ZM15.8675 6.66766C16.4792 7.26943 16.9656 7.98634 17.2988 8.77706C17.632 9.56777 17.8054 10.4166 17.8089 11.2747C17.8124 12.1327 17.6459 12.9829 17.3192 13.7763C16.9924 14.5697 16.5118 15.2906 15.9051 15.8973C15.2984 16.5041 14.5775 16.9847 13.7841 17.3114C12.9907 17.6381 12.1405 17.8046 11.2825 17.8011C10.4244 17.7976 9.57556 17.6242 8.78485 17.291C7.99413 16.9578 7.27722 16.4714 6.67545 15.8597C5.47286 14.6374 4.80199 12.9894 4.80897 11.2747C4.81596 9.55994 5.50022 7.91744 6.71273 6.70494C7.92523 5.49243 9.56773 4.80817 11.2825 4.80118C12.9972 4.7942 14.6452 5.46507 15.8675 6.66766Z" fill="#121431" fill-opacity="0.55"/>
</svg>
