<svg width="39" height="38" viewBox="0 0 39 38" fill="none" xmlns="http://www.w3.org/2000/svg">
<g clip-path="url(#clip0)">
<path d="M19.076 0C8.56016 0 0.0356445 8.35456 0.0356445 18.6607C0.0356445 28.9669 8.56016 37.3214 19.076 37.3214C29.5918 37.3214 38.1163 28.9669 38.1163 18.6607C38.1163 8.35456 29.5918 0 19.076 0ZM23.5862 12.8953H20.7242C20.385 12.8953 20.0082 13.3327 20.0082 13.9139V15.9394H23.5881L23.0467 18.8279H20.0082V27.4993H16.6305V18.8279H13.5662V15.9394H16.6305V14.2405C16.6305 11.8029 18.356 9.82214 20.7242 9.82214H23.5862V12.8953Z" fill="#1C61EA" fill-opacity="0.88"/>
</g>
<defs>
<clipPath id="clip0">
<rect width="38.0807" height="37.3214" fill="white" transform="translate(0.0356445)"/>
</clipPath>
</defs>
</svg>
