<svg width="39" height="38" viewBox="0 0 39 38" fill="none" xmlns="http://www.w3.org/2000/svg">
<g clip-path="url(#clip0)">
<path d="M25.2485 18.6607C25.2485 20.2073 24.6216 21.6906 23.5057 22.7842C22.3899 23.8778 20.8765 24.4922 19.2984 24.4922C17.7203 24.4922 16.2069 23.8778 15.091 22.7842C13.9752 21.6906 13.3483 20.2073 13.3483 18.6607C13.3483 18.3283 13.384 18.0037 13.4455 17.6888H11.3649V25.4583C11.3649 25.9986 11.8112 26.436 12.3626 26.436H26.2362C26.5005 26.4355 26.7537 26.3323 26.9404 26.1489C27.127 25.9656 27.2319 25.7172 27.2319 25.4583V17.6888H25.1513C25.2128 18.0037 25.2485 18.3283 25.2485 18.6607ZM19.2984 22.5484C19.8194 22.5482 20.3354 22.4475 20.8167 22.252C21.298 22.0564 21.7354 21.7699 22.1037 21.4087C22.4721 21.0475 22.7642 20.6188 22.9635 20.147C23.1628 19.6751 23.2653 19.1694 23.2651 18.6588C23.265 18.1481 23.1622 17.6425 22.9627 17.1707C22.7632 16.699 22.4708 16.2704 22.1023 15.9094C21.7338 15.5484 21.2963 15.2621 20.8149 15.0668C20.3334 14.8714 19.8175 14.771 19.2964 14.7711C18.2441 14.7714 17.235 15.1813 16.4911 15.9108C15.7472 16.6402 15.3294 17.6294 15.3297 18.6607C15.3299 19.692 15.7482 20.681 16.4925 21.4101C17.2368 22.1392 18.2461 22.5486 19.2984 22.5484ZM24.0585 14.5787H26.4365C26.5945 14.5787 26.7461 14.5173 26.858 14.408C26.9699 14.2987 27.033 14.1504 27.0335 13.9955V11.6649C27.0335 11.5097 26.9706 11.3609 26.8587 11.2512C26.7467 11.1414 26.5949 11.0798 26.4365 11.0798H24.0585C23.9001 11.0798 23.7483 11.1414 23.6363 11.2512C23.5244 11.3609 23.4615 11.5097 23.4615 11.6649V13.9955C23.4635 14.3163 23.7312 14.5787 24.0585 14.5787ZM19.2984 0C14.2486 0 9.4056 1.96603 5.83484 5.4656C2.26409 8.96516 0.258057 13.7116 0.258057 18.6607C0.258057 23.6098 2.26409 28.3563 5.83484 31.8558C9.4056 35.3554 14.2486 37.3214 19.2984 37.3214C21.7988 37.3214 24.2747 36.8388 26.5848 35.901C28.8949 34.9632 30.9939 33.5886 32.7619 31.8558C34.53 30.123 35.9325 28.0659 36.8894 25.8019C37.8462 23.5378 38.3387 21.1113 38.3387 18.6607C38.3387 16.2102 37.8462 13.7836 36.8894 11.5196C35.9325 9.25554 34.53 7.1984 32.7619 5.4656C30.9939 3.73279 28.8949 2.35825 26.5848 1.42046C24.2747 0.482674 21.7988 0 19.2984 0ZM29.2152 26.2202C29.2152 27.4079 28.2235 28.3798 27.0117 28.3798H11.5851C10.3732 28.3798 9.38155 27.4079 9.38155 26.2202V11.1012C9.38155 9.9135 10.3732 8.94159 11.5851 8.94159H27.0117C28.2235 8.94159 29.2152 9.9135 29.2152 11.1012V26.2202Z" fill="#FFA95A"/>
<path d="M25.2485 18.6607C25.2485 20.2073 24.6216 21.6906 23.5057 22.7842C22.3899 23.8778 20.8765 24.4922 19.2984 24.4922C17.7203 24.4922 16.2069 23.8778 15.091 22.7842C13.9752 21.6906 13.3483 20.2073 13.3483 18.6607C13.3483 18.3283 13.384 18.0037 13.4455 17.6888H11.3649V25.4583C11.3649 25.9986 11.8112 26.436 12.3626 26.436H26.2362C26.5005 26.4355 26.7537 26.3323 26.9404 26.1489C27.127 25.9656 27.2319 25.7172 27.2319 25.4583V17.6888H25.1513C25.2128 18.0037 25.2485 18.3283 25.2485 18.6607ZM19.2984 22.5484C19.8194 22.5482 20.3354 22.4475 20.8167 22.252C21.298 22.0564 21.7354 21.7699 22.1037 21.4087C22.4721 21.0475 22.7642 20.6188 22.9635 20.147C23.1628 19.6751 23.2653 19.1694 23.2651 18.6588C23.265 18.1481 23.1622 17.6425 22.9627 17.1707C22.7632 16.699 22.4708 16.2704 22.1023 15.9094C21.7338 15.5484 21.2963 15.2621 20.8149 15.0668C20.3334 14.8714 19.8175 14.771 19.2964 14.7711C18.2441 14.7714 17.235 15.1813 16.4911 15.9108C15.7472 16.6402 15.3294 17.6294 15.3297 18.6607C15.3299 19.692 15.7482 20.681 16.4925 21.4101C17.2368 22.1392 18.2461 22.5486 19.2984 22.5484ZM24.0585 14.5787H26.4365C26.5945 14.5787 26.7461 14.5173 26.858 14.408C26.9699 14.2987 27.033 14.1504 27.0335 13.9955V11.6649C27.0335 11.5097 26.9706 11.3609 26.8587 11.2512C26.7467 11.1414 26.5949 11.0798 26.4365 11.0798H24.0585C23.9001 11.0798 23.7483 11.1414 23.6363 11.2512C23.5244 11.3609 23.4615 11.5097 23.4615 11.6649V13.9955C23.4635 14.3163 23.7312 14.5787 24.0585 14.5787ZM19.2984 0C14.2486 0 9.4056 1.96603 5.83484 5.4656C2.26409 8.96516 0.258057 13.7116 0.258057 18.6607C0.258057 23.6098 2.26409 28.3563 5.83484 31.8558C9.4056 35.3554 14.2486 37.3214 19.2984 37.3214C21.7988 37.3214 24.2747 36.8388 26.5848 35.901C28.8949 34.9632 30.9939 33.5886 32.7619 31.8558C34.53 30.123 35.9325 28.0659 36.8894 25.8019C37.8462 23.5378 38.3387 21.1113 38.3387 18.6607C38.3387 16.2102 37.8462 13.7836 36.8894 11.5196C35.9325 9.25554 34.53 7.1984 32.7619 5.4656C30.9939 3.73279 28.8949 2.35825 26.5848 1.42046C24.2747 0.482674 21.7988 0 19.2984 0ZM29.2152 26.2202C29.2152 27.4079 28.2235 28.3798 27.0117 28.3798H11.5851C10.3732 28.3798 9.38155 27.4079 9.38155 26.2202V11.1012C9.38155 9.9135 10.3732 8.94159 11.5851 8.94159H27.0117C28.2235 8.94159 29.2152 9.9135 29.2152 11.1012V26.2202Z" fill="url(#paint0_linear)"/>
<path d="M25.2485 18.6607C25.2485 20.2073 24.6216 21.6906 23.5057 22.7842C22.3899 23.8778 20.8765 24.4922 19.2984 24.4922C17.7203 24.4922 16.2069 23.8778 15.091 22.7842C13.9752 21.6906 13.3483 20.2073 13.3483 18.6607C13.3483 18.3283 13.384 18.0037 13.4455 17.6888H11.3649V25.4583C11.3649 25.9986 11.8112 26.436 12.3626 26.436H26.2362C26.5005 26.4355 26.7537 26.3323 26.9404 26.1489C27.127 25.9656 27.2319 25.7172 27.2319 25.4583V17.6888H25.1513C25.2128 18.0037 25.2485 18.3283 25.2485 18.6607ZM19.2984 22.5484C19.8194 22.5482 20.3354 22.4475 20.8167 22.252C21.298 22.0564 21.7354 21.7699 22.1037 21.4087C22.4721 21.0475 22.7642 20.6188 22.9635 20.147C23.1628 19.6751 23.2653 19.1694 23.2651 18.6588C23.265 18.1481 23.1622 17.6425 22.9627 17.1707C22.7632 16.699 22.4708 16.2704 22.1023 15.9094C21.7338 15.5484 21.2963 15.2621 20.8149 15.0668C20.3334 14.8714 19.8175 14.771 19.2964 14.7711C18.2441 14.7714 17.235 15.1813 16.4911 15.9108C15.7472 16.6402 15.3294 17.6294 15.3297 18.6607C15.3299 19.692 15.7482 20.681 16.4925 21.4101C17.2368 22.1392 18.2461 22.5486 19.2984 22.5484ZM24.0585 14.5787H26.4365C26.5945 14.5787 26.7461 14.5173 26.858 14.408C26.9699 14.2987 27.033 14.1504 27.0335 13.9955V11.6649C27.0335 11.5097 26.9706 11.3609 26.8587 11.2512C26.7467 11.1414 26.5949 11.0798 26.4365 11.0798H24.0585C23.9001 11.0798 23.7483 11.1414 23.6363 11.2512C23.5244 11.3609 23.4615 11.5097 23.4615 11.6649V13.9955C23.4635 14.3163 23.7312 14.5787 24.0585 14.5787ZM19.2984 0C14.2486 0 9.4056 1.96603 5.83484 5.4656C2.26409 8.96516 0.258057 13.7116 0.258057 18.6607C0.258057 23.6098 2.26409 28.3563 5.83484 31.8558C9.4056 35.3554 14.2486 37.3214 19.2984 37.3214C21.7988 37.3214 24.2747 36.8388 26.5848 35.901C28.8949 34.9632 30.9939 33.5886 32.7619 31.8558C34.53 30.123 35.9325 28.0659 36.8894 25.8019C37.8462 23.5378 38.3387 21.1113 38.3387 18.6607C38.3387 16.2102 37.8462 13.7836 36.8894 11.5196C35.9325 9.25554 34.53 7.1984 32.7619 5.4656C30.9939 3.73279 28.8949 2.35825 26.5848 1.42046C24.2747 0.482674 21.7988 0 19.2984 0ZM29.2152 26.2202C29.2152 27.4079 28.2235 28.3798 27.0117 28.3798H11.5851C10.3732 28.3798 9.38155 27.4079 9.38155 26.2202V11.1012C9.38155 9.9135 10.3732 8.94159 11.5851 8.94159H27.0117C28.2235 8.94159 29.2152 9.9135 29.2152 11.1012V26.2202Z" fill="url(#paint1_linear)"/>
</g>
<defs>
<linearGradient id="paint0_linear" x1="9.95132" y1="-5.08929" x2="27.6342" y2="54.145" gradientUnits="userSpaceOnUse">
<stop stop-color="#B011FB"/>
<stop offset="1" stop-color="white" stop-opacity="0"/>
</linearGradient>
<linearGradient id="paint1_linear" x1="128.001" y1="-30.875" x2="20.5817" y2="39.2862" gradientUnits="userSpaceOnUse">
<stop offset="0.747842" stop-color="#F433E1"/>
<stop offset="1" stop-color="white" stop-opacity="0"/>
</linearGradient>
<clipPath id="clip0">
<rect width="38.0807" height="37.3214" fill="white" transform="translate(0.258057)"/>
</clipPath>
</defs>
</svg>
