<svg width="39" height="38" viewBox="0 0 39 38" fill="none" xmlns="http://www.w3.org/2000/svg">
<g clip-path="url(#clip0)">
<path d="M15.8772 12.0878C15.8772 10.2467 17.3988 8.75554 19.2603 8.75554C21.1218 8.75554 22.6433 10.2467 22.6433 12.0878C22.6433 13.9206 21.1218 15.4034 19.2603 15.4034C17.3988 15.4034 15.8772 13.9122 15.8772 12.0878ZM38.3006 3.99872V33.3227C38.3006 35.5303 36.4731 37.3214 34.2205 37.3214H4.30004C2.0475 37.3214 0.219971 35.5303 0.219971 33.3227V3.99872C0.219971 1.7911 2.0475 0 4.30004 0H34.2205C36.4731 0 38.3006 1.7911 38.3006 3.99872ZM12.3667 12.0878C12.3667 15.8033 15.4607 18.8273 19.2603 18.8273C23.0599 18.8273 26.1539 15.8116 26.1539 12.0878C26.1539 8.35567 23.0599 5.33163 19.2603 5.33163C15.4607 5.33163 12.3667 8.34734 12.3667 12.0878ZM27.1994 19.6437C26.8084 18.8856 25.7289 18.2442 24.3009 19.3438C24.3009 19.3438 22.3713 20.8433 19.2603 20.8433C16.1492 20.8433 14.2197 19.3438 14.2197 19.3438C12.7917 18.2442 11.7122 18.8856 11.3212 19.6437C10.6496 20.985 11.4147 21.6181 13.1402 22.7261C14.6107 23.6508 16.6422 23.9923 17.9513 24.1256L16.8547 25.2003C15.3077 26.6998 13.8372 28.1577 12.8002 29.174C11.3042 30.6402 13.7097 32.9895 15.2142 31.5566L19.2688 27.5662C20.8158 29.0824 22.3033 30.5403 23.3234 31.5566C24.8194 32.9895 27.2334 30.6652 25.7544 29.174L21.6998 25.2003L20.5948 24.1256C21.9123 23.9923 23.9184 23.6341 25.3719 22.7261C27.1059 21.6181 27.8624 20.9766 27.1994 19.6437Z" fill="#FBA42D" fill-opacity="0.88"/>
</g>
<defs>
<clipPath id="clip0">
<rect x="0.219971" width="38.0806" height="37.3214" rx="18.6607" fill="white"/>
</clipPath>
</defs>
</svg>
