<svg width="39" height="38" viewBox="0 0 39 38" fill="none" xmlns="http://www.w3.org/2000/svg">
<path d="M19.2479 5.07987e-05C14.2135 0.0230765 9.39329 1.99927 5.84172 5.49634C2.29016 8.99341 0.296332 13.7267 0.296387 18.6608C0.296387 23.6099 2.30242 28.3563 5.87317 31.8559C9.44393 35.3554 14.2869 37.3215 19.3367 37.3215C24.3865 37.3215 29.2295 35.3554 32.8003 31.8559C36.371 28.3563 38.3771 23.6099 38.3771 18.6608C38.3771 13.7116 36.371 8.96521 32.8003 5.46565C29.2295 1.96609 24.3865 5.07987e-05 19.3367 5.07987e-05C19.3071 -1.69329e-05 19.2775 -1.69329e-05 19.2479 5.07987e-05ZM27.1211 11.2338C27.2797 11.2307 27.6304 11.2696 27.8589 11.4515C28.0107 11.5807 28.1075 11.7611 28.1302 11.9569C28.1556 12.1015 28.1873 12.4328 28.1619 12.6909C27.8763 15.6424 26.6355 22.8019 26.004 26.1064C25.7375 27.5059 25.2123 27.974 24.7029 28.0191C23.5986 28.1202 22.7592 27.3038 21.6882 26.6164C20.0127 25.5388 19.0654 24.8686 17.439 23.8173C15.5588 22.6044 16.7774 21.9357 17.8484 20.8472C18.1293 20.561 23.0004 16.2178 23.0956 15.8243C23.1067 15.7746 23.1178 15.5911 23.0068 15.4947C22.8957 15.3983 22.7307 15.4309 22.6117 15.4573C22.4435 15.4947 19.7667 17.2301 14.5814 20.659C13.8198 21.1722 13.1328 21.421 12.5155 21.4054C11.8364 21.393 10.529 21.0307 9.55634 20.7212C8.36315 20.3402 7.41589 20.1396 7.4984 19.4943C7.54124 19.1584 8.01407 18.8147 8.91532 18.4633C14.4656 16.0934 18.1658 14.5305 20.019 13.7763C25.3059 11.621 26.4055 11.2462 27.1211 11.2338Z" fill="#3CB5F9" fill-opacity="0.88"/>
</svg>
