<svg width="39" height="38" viewBox="0 0 39 38" fill="none" xmlns="http://www.w3.org/2000/svg">
<path d="M19.5364 0.678467C9.0206 0.678467 0.496094 9.03302 0.496094 19.3392C0.496094 29.6453 9.0206 37.9999 19.5364 37.9999C30.0522 37.9999 38.5767 29.6453 38.5767 19.3392C38.5767 9.03302 30.0522 0.678467 19.5364 0.678467ZM26.859 21.732C26.859 21.732 28.5429 23.361 28.9574 24.1171C28.9693 24.1327 28.9752 24.1482 28.9792 24.156C29.1478 24.4339 29.1875 24.6497 29.1042 24.811C28.9653 25.0793 28.4893 25.2115 28.3267 25.2231H25.3516C25.1454 25.2231 24.713 25.1707 24.1894 24.8169C23.7868 24.5409 23.3901 24.0879 23.0033 23.6467C22.4262 22.9897 21.9264 22.4221 21.4226 22.4221C21.3586 22.422 21.295 22.4318 21.2342 22.4512C20.8534 22.5718 20.3655 23.1044 20.3655 24.5234C20.3655 24.9666 20.0084 25.2212 19.7566 25.2212H18.394C17.9299 25.2212 15.5122 25.0618 13.3701 22.8478C10.7481 20.1362 8.38791 14.6973 8.36807 14.6468C8.21932 14.295 8.52674 14.1064 8.86193 14.1064H11.8667C12.2674 14.1064 12.3983 14.3455 12.4895 14.5574C12.5966 14.8042 12.9893 15.7859 13.6339 16.89C14.6791 18.6899 15.3198 19.4208 15.8335 19.4208C15.9298 19.4197 16.0244 19.3957 16.1092 19.3508C16.7795 18.9854 16.6546 16.6431 16.6248 16.1571C16.6248 16.0658 16.6228 15.1094 16.2797 14.6507C16.0338 14.3183 15.6153 14.1919 15.3614 14.1453C15.4642 14.0063 15.5996 13.8936 15.7561 13.8168C16.2163 13.5913 17.0453 13.5582 17.8684 13.5582H18.3266C19.2191 13.5699 19.4491 13.6263 19.7724 13.706C20.4269 13.8595 20.4408 14.2736 20.3833 15.6906C20.3655 16.093 20.3476 16.5479 20.3476 17.0843C20.3476 17.201 20.3417 17.3254 20.3417 17.4576C20.3218 18.1787 20.298 18.9971 20.8177 19.3333C20.8854 19.375 20.9638 19.3972 21.0438 19.3975C21.2243 19.3975 21.7677 19.3975 23.2394 16.923C23.6932 16.1265 24.0876 15.2989 24.4195 14.4466C24.4492 14.396 24.5365 14.2405 24.6396 14.1803C24.7157 14.1422 24.8001 14.1229 24.8855 14.1239H28.4179C28.8027 14.1239 29.0665 14.1803 29.1161 14.3261C29.2033 14.5574 29.1002 15.263 27.4877 17.4031L26.7678 18.3342C25.306 20.212 25.306 20.3072 26.859 21.732Z" fill="#4598F9" fill-opacity="0.88"/>
</svg>
