<svg width="39" height="38" viewBox="0 0 39 38" fill="none" xmlns="http://www.w3.org/2000/svg">
<g clip-path="url(#clip0)">
<path d="M22.5542 18.3361L18.0995 16.299C17.7108 16.1221 17.3915 16.3203 17.3915 16.7422V20.5793C17.3915 21.0011 17.7108 21.1993 18.0995 21.0225L22.5522 18.9853C22.9429 18.8065 22.9429 18.5149 22.5542 18.3361ZM19.3748 0C8.859 0 0.334473 8.35456 0.334473 18.6607C0.334473 28.9669 8.859 37.3214 19.3748 37.3214C29.8906 37.3214 38.4152 28.9669 38.4152 18.6607C38.4152 8.35456 29.8906 0 19.3748 0ZM19.3748 26.2416C9.62854 26.2416 9.45797 25.3805 9.45797 18.6607C9.45797 11.9409 9.62854 11.0798 19.3748 11.0798C29.1211 11.0798 29.2917 11.9409 29.2917 18.6607C29.2917 25.3805 29.1211 26.2416 19.3748 26.2416Z" fill="#FF1515" fill-opacity="0.88"/>
</g>
<defs>
<clipPath id="clip0">
<rect width="38.0807" height="37.3214" fill="white" transform="translate(0.334473)"/>
</clipPath>
</defs>
</svg>
