<svg width="29" height="25" viewBox="0 0 29 25" fill="none" xmlns="http://www.w3.org/2000/svg">
<path d="M26.6138 5.74707C26.7944 5.13672 26.6138 4.6875 25.7446 4.6875H22.8687C22.1362 4.6875 21.7993 5.07324 21.6187 5.50293C21.6187 5.50293 20.1538 9.07227 18.0835 11.3867C17.4146 12.0557 17.1069 12.2705 16.7407 12.2705C16.5601 12.2705 16.2817 12.0557 16.2817 11.4453V5.74707C16.2817 5.01465 16.0767 4.6875 15.4712 4.6875H10.9497C10.4907 4.6875 10.2173 5.0293 10.2173 5.34668C10.2173 6.04004 11.2524 6.20117 11.3599 8.1543V12.3926C11.3599 13.3203 11.1938 13.4912 10.8276 13.4912C9.85107 13.4912 7.47803 9.90723 6.07178 5.80566C5.78857 5.00977 5.51025 4.6875 4.77295 4.6875H1.89697C1.07666 4.6875 0.910645 5.07324 0.910645 5.50293C0.910645 6.26465 1.88721 10.0488 5.45654 15.0488C7.83447 18.4619 11.1841 20.3125 14.231 20.3125C16.062 20.3125 16.2866 19.9023 16.2866 19.1943C16.2866 15.9326 16.1206 15.625 17.0386 15.625C17.4634 15.625 18.1958 15.8398 19.9048 17.4854C21.8579 19.4385 22.1802 20.3125 23.2739 20.3125H26.1499C26.9702 20.3125 27.3853 19.9023 27.146 19.0918C26.5991 17.3877 22.9028 13.8818 22.7368 13.6475C22.312 13.1006 22.4341 12.8564 22.7368 12.3682C22.7417 12.3633 26.2524 7.42187 26.6138 5.74707Z" fill="black" fill-opacity="0.12"/>
</svg>
