<svg width="25" height="24" viewBox="0 0 25 24" fill="none" xmlns="http://www.w3.org/2000/svg">
<path d="M23.75 20.4V3.59995C23.75 2.27995 22.6213 1.19995 21.2438 1.19995H3.75625C2.31875 1.19995 1.25 2.22355 1.25 3.59995V20.4C1.25 21.7775 2.31875 22.7999 3.75625 22.7999H21.2438C21.9071 22.799 22.543 22.546 23.0126 22.0963C23.4823 21.6466 23.7474 21.0367 23.75 20.4ZM18.98 13.9284C18.98 13.9284 20.395 15.2688 20.7437 15.8903C20.7537 15.9036 20.7575 15.9156 20.7612 15.9204C20.9025 16.1484 20.9388 16.3284 20.8675 16.4604C20.75 16.68 20.35 16.7903 20.2137 16.8H17.715C17.54 16.8 17.1775 16.7568 16.7375 16.4651C16.4 16.2395 16.0663 15.8664 15.7413 15.5028C15.2563 14.9628 14.8363 14.4948 14.4137 14.4948C14.3602 14.4946 14.3069 14.5031 14.2562 14.52C13.935 14.6184 13.5275 15.0564 13.5275 16.2264C13.5275 16.5924 13.2275 16.8012 13.015 16.8012H11.87C11.48 16.8012 9.44875 16.6704 7.65 14.8476C5.4425 12.6156 3.46 8.13835 3.4425 8.09875C3.3175 7.80955 3.57625 7.65235 3.8575 7.65235H6.3825C6.72125 7.65235 6.83 7.84915 6.9075 8.02555C6.995 8.22595 7.325 9.03475 7.865 9.94435C8.74375 11.424 9.285 12.0264 9.71625 12.0264C9.79689 12.0259 9.87607 12.0057 9.94625 11.9676C10.51 11.6687 10.405 9.73915 10.38 9.34075C10.38 9.26515 10.3787 8.47795 10.0912 8.09995C9.88375 7.82635 9.5325 7.72195 9.32 7.68235C9.40665 7.56773 9.52067 7.47473 9.6525 7.41115C10.0387 7.22635 10.735 7.19995 11.4275 7.19995H11.8125C12.5637 7.20955 12.7587 7.25635 13.03 7.32235C13.5787 7.44835 13.59 7.79035 13.5413 8.95435C13.5275 9.28555 13.5125 9.66115 13.5125 10.1016C13.5125 10.1964 13.5087 10.3008 13.5087 10.4088C13.4913 11.004 13.4712 11.6772 13.9087 11.9532C13.9654 11.9872 14.0307 12.0054 14.0975 12.006C14.25 12.006 14.7062 12.0059 15.9425 9.96955C16.4862 9.07075 16.905 8.00995 16.9338 7.93075C16.9774 7.84512 17.0407 7.77006 17.1187 7.71115C17.1828 7.67922 17.2541 7.66314 17.3263 7.66435H20.295C20.62 7.66435 20.84 7.71115 20.8813 7.82995C20.9525 8.02075 20.8675 8.60275 19.5112 10.362L18.9075 11.13C17.6775 12.6756 17.6775 12.7548 18.98 13.9284Z" fill="black" fill-opacity="0.12"/>
</svg>
